<?xml version="1.0" encoding="utf-8"?>
<!-- Generator: Adobe Illustrator 19.0.0, SVG Export Plug-In . SVG Version: 6.00 Build 0)  -->
<svg version="1.0" id="Layer_2" xmlns="http://www.w3.org/2000/svg" xmlns:xlink="http://www.w3.org/1999/xlink" x="0px" y="0px"
	 width="1400px" height="980px" viewBox="0 0 1400 980" enable-background="new 0 0 1400 980" xml:space="preserve">
<rect id="XMLID_157_" fill="#D1EEFC" width="1400" height="980"/>
<path id="XMLID_185_" fill="#B1E3FA" d="M721.1,0c5.7,20,12.1,39.8,19.2,59.4c2.5,6.8,5,13.6,5.8,20.8c1.1,10.2-1.5,20.4-4,30.4
	c-6.7,26.1-13.3,52.1-20,78.2c-1.2,4.8-2.5,9.6-3.7,14.4c-5.5,21.7-11.1,43.4-18.9,64.4c-5.9,15.8-11.6,36.9,2.1,46.8
	c5.4,3.9,13.5,5.8,14.8,12.2c0.7,3.6-1.1,7.1-2.9,10.3c-14.5,25.8-36.9,51.7-42.9,80.7c-4,19.3-5.5,39.9-16,56.6
	c-8,12.6-20.5,21.9-27.8,34.9c-2.9,5.3-5,11-8.6,15.8c-9.4,12.3-26.7,14.5-42.2,15.8c-5.5,18.1,24.3,31.9,20.8,50.6
	c-1.9,10.1-12.7,15.6-18.8,23.9c-17,23,6.2,59.4-9.7,83.3c-2.8,4.2-6.8,9.6-3.7,13.6c1.4,1.8,3.7,2.5,5.9,3
	c14.4,3.7,29,7.5,43.9,6.9c14.9-0.6,30.2-6.2,39.2-18.1c10.8-14.3,10.4-34.6,20-49.7c7.1-11.2,19.6-18.7,32.8-19.7
	c-8.8,12.4-17.6,24.8-26.4,37.2c-2.6,3.6-5.2,7.5-5.2,11.9c0.1,6.5,5.9,11.2,9.5,16.7c5.6,8.5,5.4,20.4-0.3,28.8
	c-5.7,8.4-16.7,12.9-26.6,11c-9.6-1.9-17.4-9-26.8-11.7c-9.4-2.7-22.7,2.8-21.3,12.4c1,7.3,9.2,10.7,15.2,15.1
	c12.2,9,16.2,27.4,9,40.7c8.6,6.5,21.2,2.3,29.6-4.4c8.4-6.7,15.3-15.7,25.2-19.9c9.9-4.2,24.5-0.1,25.7,10.5
	c0.6,5.3-2.2,11,0.4,15.6c3.3,5.8,11.8,4.8,18.2,3.1c-16.1,4.4-14.3,66.7-14.5,78.9c-0.5,20.9-17,32.6-19.3,51.2
	c-1.9,15.6,17.7,26.2,19.5,41.9c0.2,2.2,0.1,4.4-0.2,6.5h291.4c0.1-4.8,0.9-9,4.7-11.7c4.1-2.9,9.7-2,14.3-3.8
	c8.3-3.1,11.3-13.4,11.5-22.2c0.2-8.9-1.2-18.2,2.7-26.2c3.9-8,16.2-12.3,21.5-5.2c1,1.4,1.7,3.1,3,4.3c5.6,5.3,13.3-3.8,15.7-11.1
	c7.7,5.5,16.7,9.3,26,11c4.1-14.7,8.2-29.3,12.3-44c1.1-3.8,2.1-7.8,1-11.5c-3.8-12.8-23.2-7.2-35.9-11.2
	c-12.1-3.8-18-17.2-22.5-29.1c-6.1-16.4-12.2-32.7-18.3-49.1c-3.1-8.2-6-18.1-0.9-25.3c2.1-3,5.4-5.2,6.5-8.7
	c1.8-5.7-3.3-11.4-3.3-17.4c0.1-5.7,4.6-10.2,8.8-14c12.7-11.5,26.9-22.3,38.2-35.2c9.5-10.9,36.1-40.6,22.3-54.9
	c-4.7-4.9-12.1-5.7-18.7-7.5c-14.5-3.8-27.7-14-33.1-28c-1.9-5-3.1-10.7-7.4-13.9c-3.3-2.5-7.7-2.8-11.6-4.1
	c-13.9-4.6-20.7-23.5-12.9-35.9c1.6-2.5,3.8-5,3.9-8c0.4-6.8-8.5-9.3-15-11.2c-22.1-6.3-36.8-31.7-31.3-54.1
	c17.6-4.5,31.1,23.8,48.6,19.2c5-1.3,8.8-5.1,12.9-8.2c11.9-8.8,27.9-11.7,42.1-7.6c2.9,0.8,5.8,1.9,8.7,1.5
	c6.7-0.8,10.1-8.7,10-15.4c-0.1-6.7-2.4-13.4-1.6-20.1c2-16.5,22.1-29.4,17.1-45.2c-1.3-4.1-4.2-7.5-7.1-10.8
	c-6.8-7.7-13.5-15.5-20.3-23.2c-6.6-7.5-13.5-15.8-14.4-25.7c-1.8-20.4,22.6-39.5,39.7-44.7c1.8-0.6,3.7-1.1,5.2-2.2
	c4-3.2,3-9.9,0-14.1c-3-4.3-7.4-7.5-9.7-12.1c-6.3-12.5,7.6-16.7,7.2-26.5c-0.3-6.6-10.4-13.7-12.3-21c-0.1-0.4-0.2-0.7-0.3-1.1
	c-2.4-10.7,2.2-23.1,5.9-32.9c5.5-14.3,11.4-30.8,4-44.3c-4.6-8.4-13.4-13.5-20.1-20.3c-6.7-6.8-11.4-17.9-5.9-25.7
	c9.1-12.6,31.4-1.1,43.9-10.4c13.1-9.7,5.1-33.6,17.5-44.2c11-9.4,29.6-1.1,41.5-9.3c2.9-2,5.1-4.7,6.7-7.8H721.1z"/>
<path id="XMLID_113_" fill="#77902D" d="M1041.4,339c-1.3-6,1.2-13,3.3-18.5c3.1-8,6.4-17.3,2.3-24.9c-2.6-4.7-7.5-7.6-11.3-11.4
	s-6.4-10.1-3.3-14.5c5.1-7.1,17.7-0.6,24.7-5.9c7.4-5.5,2.9-18.9,9.8-24.9c6.2-5.3,16.6-0.6,23.3-5.2c4.7-3.2,5.7-9.7,7.2-15.2
	c1.3-4.8,27.1-33.9,23.5-37.1c-7.3-6.5-18.3-5.1-28-5.6c-9.7-0.6-21.5-6.7-20.1-16.3c0.9-6.5,7.8-11.8,6.2-18.2
	c-1.6-6.6-11.5-8.9-12.4-15.7c-3.8-0.3-6.9,2.6-10.1,4.7s-8,3.3-10.3,0.4c-1.2-1.5-1.3-3.6-2.6-5c-3.6-3.9-9.1,2-13.5,4.9
	c-7.3,4.8-16.8,0.6-25.2-1.6c-1.6-0.4-3.3-0.8-4.8-0.3c-4.6,1.5-4.2,8-5.2,12.7c-1.9,9.8-15.1,15.2-23.5,9.7c0,0-0.1,0-0.1-0.1
	c-4.2-2.9-8-8.2-13-7c-4.3,1-6.3,6.4-10.5,7.8c-8.2,2.8-14.9-11.4-23.2-8.9c-3.7,1.1-5.6,5-8.6,7.4c-2.3,1.9-5.1,2.8-7.9,3.7
	c-6.1,2-12.6,3.9-19,2.9c-6.4-1-12.6-5.9-12.9-12.4c-0.6-10.6,15-14.9,14.2-23.5c-0.1-1-5.5-6.7-6.3-7.8c-9-12.2-5.1-8.8-17.7-1.2
	c-10.9,6.5-31.6-1.3-38.9,10.3c-2.7,4.4-2,10.3-4.9,14.6c-4,6-13.4,6.4-17.6,12.4c-3.2,4.6-2.3,10.8-1.2,16.3
	c3.2,16.1,6.5,32.1,10.5,48c4.2,16.6,9.2,32.9,15,49c1.4,3.8,2.8,7.7,3.3,11.7c0.6,5.8-0.8,11.5-2.3,17.1
	c-3.7,14.7-7.5,29.3-11.2,44c-0.7,2.7-1.4,5.4-2.1,8.1c-3.1,12.2-6.2,24.4-10.6,36.3c-3.3,8.9-6.5,20.8,1.2,26.3
	c3,2.2,7.6,3.2,8.3,6.9c0.4,2-0.6,4-1.6,5.8c-8.2,14.5-20.8,29.1-24.2,45.4c-2.3,10.9-3.1,22.5-9,31.9c-4.5,7.1-11.6,12.3-15.6,19.7
	c-1.6,3-2.8,6.2-4.9,8.9c-5.3,6.9-15,8.2-23.7,8.9c-3.1,10.2,13.7,18,11.7,28.5c-1.1,5.7-7.1,8.8-10.6,13.4
	c-9.6,13,3.5,33.5-5.4,46.9c-1.6,2.4-3.8,5.4-2.1,7.7c0.8,1,2.1,1.4,3.3,1.7c8.1,2.1,16.3,4.2,24.7,3.9c8.4-0.3,17-3.5,22-10.2
	c6.1-8.1,5.8-19.5,11.3-28c4-6.3,11.1-10.5,18.5-11.1c-5,7-9.9,13.9-14.9,20.9c-1.4,2-2.9,4.2-2.9,6.7c0.1,3.7,3.3,6.3,5.3,9.4
	c3.1,4.8,3.1,11.5-0.1,16.2c-3.2,4.7-9.4,7.3-15,6.2c-5.4-1.1-9.8-5.1-15.1-6.6c-5.3-1.5-12.7,1.6-12,7c0.6,4.1,5.2,6,8.5,8.5
	c6.9,5.1,9.1,15.4,5,22.9c4.8,3.7,11.9,1.3,16.6-2.5c4.7-3.8,8.6-8.8,14.2-11.2c5.6-2.4,13.8-0.1,14.4,5.9c0.3,3-1.2,6.2,0.2,8.8
	c1.8,3.3,6.6,2.7,10.2,1.7c-9.1,2.5-8,37.5-8.2,44.4c-0.3,11.8-9.6,18.3-10.9,28.8c-1.1,8.8,10,14.8,11,23.6
	c0.5,4.2-1.5,8.3-2.6,12.4c-3.5,12.5,0.9,25.8-0.4,38.7c-0.8,7.7-3.6,15.1-6.4,22.4c-5.2,13.5-10.4,26.9-15.6,40.4
	c-2,5.3-3.1,12.9,2.2,15c2.7,1,5.6-0.2,8.2-1.5c9.7-5,18.7-11.4,26.5-19c2.8-2.7,5.6-5.7,9.4-6.7c9.2-2.5,17.4,7.6,26.9,7.6
	c3.3,0,6.4-1.2,9.6-1.8c13.4-2.6,26.5,4.6,37.8,12.2c3.8,2.5,7.6,5.2,12.1,5.9c14.3,2.2,23-15.4,36.2-21.4c7.2-3.3,15.5-2.9,23-5.3
	c7.5-2.5,14.7-10.1,11.8-17.5c-2.4-6.2-10.3-8.4-14-14c-1.6-2.5-2.3-5.6-2.9-8.5c-2.1-10.4-4.1-20.8-6.2-31.1
	c-0.4-2.1-0.8-4.5,0.2-6.4c1.4-2.4,4.6-3.1,6.4-5.2c4.5-5.1-1.2-15.2,4.4-19.1c2.3-1.6,5.4-1.1,8.1-2.1c4.7-1.8,6.3-7.5,6.5-12.5
	s-0.7-10.3,1.5-14.7c2.2-4.5,9.1-6.9,12.1-2.9c0.6,0.8,1,1.8,1.7,2.4c3.2,3,7.5-2.1,8.8-6.3c4.3,3.1,9.4,5.2,14.7,6.2
	c2.3-8.2,4.6-16.5,6.9-24.7c0.6-2.1,1.2-4.4,0.6-6.5c-2.2-7.2-13.1-4.1-20.2-6.3c-6.8-2.1-10.1-9.7-12.6-16.4
	c-3.4-9.2-6.9-18.4-10.3-27.6c-1.7-4.6-3.4-10.2-0.5-14.2c1.2-1.7,3-2.9,3.7-4.9c1-3.2-1.9-6.4-1.8-9.8c0-3.2,2.6-5.7,5-7.9
	c7.1-6.4,15.2-12.6,21.5-19.8c5.3-6.2,20.3-22.9,12.5-30.9c-2.7-2.7-6.8-3.2-10.5-4.2c-8.2-2.2-15.6-7.9-18.6-15.8
	c-1.1-2.8-1.8-6-4.2-7.8c-1.9-1.4-4.3-1.6-6.5-2.3c-7.8-2.6-11.6-13.2-7.2-20.2c0.9-1.4,2.1-2.8,2.2-4.5c0.2-3.8-4.8-5.3-8.4-6.3
	c-12.5-3.6-20.7-17.9-17.6-30.4c9.9-2.6,17.5,13.4,27.4,10.8c2.8-0.7,5-2.9,7.3-4.6c6.7-4.9,15.7-6.6,23.7-4.3
	c1.6,0.5,3.2,1.1,4.9,0.9c3.8-0.5,5.7-4.9,5.7-8.7s-1.4-7.5-0.9-11.3c1.1-9.3,12.5-16.5,9.7-25.4c-0.7-2.3-2.4-4.2-4-6.1
	c-3.8-4.3-7.6-8.7-11.4-13c-3.7-4.2-7.6-8.9-8.1-14.5c-1-11.5,12.7-22.2,22.4-25.2c1-0.3,2.1-0.6,2.9-1.3c2.3-1.8,1.7-5.5,0-7.9
	c-1.7-2.4-4.1-4.2-5.5-6.8c-3.6-7,4.3-9.4,4-14.9c-0.2-3.7-5.8-7.7-6.9-11.8C1041.5,339.4,1041.4,339.2,1041.4,339z"/>
<path id="XMLID_117_" fill="#99B43C" d="M1026.9,324.5c-1.3-6,1.2-13,3.3-18.5c3.1-8,6.4-17.3,2.3-24.9c-2.6-4.7-7.5-7.6-11.3-11.4
	s-6.4-10.1-3.3-14.5c5.1-7.1,17.7-0.6,24.7-5.9c7.4-5.5,2.9-18.9,9.8-24.9c6.2-5.3,16.6-0.6,23.3-5.2c4.7-3.2,5.7-9.7,7.2-15.2
	c1.3-4.8,27.1-33.9,23.5-37.1c-7.3-6.5-18.3-5.1-28-5.6c-9.7-0.6-21.5-6.7-20.1-16.3c0.9-6.5,7.8-11.8,6.2-18.2
	c-1.6-6.6-11.5-8.9-12.4-15.7c-3.8-0.3-6.9,2.6-10.1,4.7s-8,3.3-10.3,0.4c-1.2-1.5-1.3-3.6-2.6-5c-3.6-3.9-9.1,2-13.5,4.9
	c-7.3,4.8-16.8,0.6-25.2-1.6c-1.6-0.4-3.3-0.7-4.8-0.3c-4.6,1.5-4.2,8-5.2,12.7c-1.9,9.8-15.1,15.2-23.5,9.7c0,0-0.1,0-0.1-0.1
	c-4.2-2.9-8-8.2-13-7c-4.3,1-6.3,6.4-10.5,7.8c-8.2,2.8-14.9-11.4-23.2-8.9c-3.7,1.1-5.6,5-8.6,7.4c-2.3,1.9-5.1,2.8-7.9,3.7
	c-6.1,2-12.6,3.9-19,2.9c-6.4-1-12.6-5.9-12.9-12.4c-0.6-10.6,15-14.9,14.2-23.5c-0.1-1-5.5-6.7-6.3-7.8c-9-12.2-5.1-8.8-17.7-1.2
	c-10.9,6.5-31.6-1.3-38.9,10.3c-2.7,4.4-2,10.3-4.9,14.6c-4,6-13.4,6.4-17.6,12.4c-3.2,4.6-2.3,10.8-1.2,16.3
	c3.2,16.1,6.5,32.1,10.5,48c4.2,16.6,9.2,32.9,15,49c1.4,3.8,2.8,7.7,3.3,11.7c0.6,5.8-0.8,11.5-2.3,17.1
	c-3.7,14.7-7.5,29.3-11.2,44c-0.7,2.7-1.4,5.4-2.1,8.1c-3.1,12.2-6.2,24.4-10.6,36.3c-3.3,8.9-6.5,20.8,1.2,26.3
	c3,2.2,7.6,3.2,8.3,6.9c0.4,2-0.6,4-1.6,5.8c-8.2,14.5-20.8,29.1-24.2,45.4c-2.3,10.9-3.1,22.5-9,31.9c-4.5,7.1-11.6,12.3-15.6,19.7
	c-1.6,3-2.8,6.2-4.9,8.9c-5.3,6.9-15,8.2-23.7,8.9c-3.1,10.2,13.7,18,11.7,28.5c-1.1,5.7-7.1,8.8-10.6,13.4
	c-9.6,13,3.5,33.5-5.4,46.9c-1.6,2.4-3.8,5.4-2.1,7.7c0.8,1,2.1,1.4,3.3,1.7c8.1,2.1,16.3,4.2,24.7,3.9c8.4-0.3,17-3.5,22-10.2
	c6.1-8.1,5.8-19.5,11.3-28c4-6.3,11.1-10.5,18.5-11.1c-5,7-9.9,13.9-14.9,20.9c-1.4,2-2.9,4.2-2.9,6.7c0.1,3.7,3.3,6.3,5.3,9.4
	c3.1,4.8,3.1,11.5-0.1,16.2s-9.4,7.3-15,6.2c-5.4-1.1-9.8-5.1-15.1-6.6c-5.3-1.5-12.7,1.6-12,7c0.6,4.1,5.2,6,8.5,8.5
	c6.9,5.1,9.1,15.4,5,22.9c4.8,3.7,11.9,1.3,16.6-2.5c4.7-3.8,8.6-8.8,14.2-11.2c5.6-2.4,13.8-0.1,14.4,5.9c0.3,3-1.2,6.2,0.2,8.8
	c1.8,3.3,6.6,2.7,10.2,1.7c-9.1,2.5-8,37.5-8.2,44.4c-0.3,11.8-9.6,18.3-10.9,28.8c-1.1,8.8,10,14.8,11,23.6
	c0.5,4.2-1.5,8.3-2.6,12.4c-3.5,12.5,0.9,25.8-0.4,38.7c-0.8,7.7-3.6,15.1-6.4,22.4c-5.2,13.5-10.4,26.9-15.6,40.4
	c-2,5.3-3.1,12.9,2.2,15c2.7,1,5.6-0.2,8.2-1.5c9.7-5,18.7-11.4,26.5-19c2.8-2.7,5.6-5.7,9.4-6.7c9.2-2.5,17.4,7.6,26.9,7.6
	c3.3,0,6.4-1.2,9.6-1.8c13.4-2.6,26.5,4.6,37.8,12.2c3.8,2.5,7.6,5.2,12.1,5.9c14.3,2.2,23-15.4,36.2-21.4c7.2-3.3,15.5-2.9,23-5.3
	c7.5-2.5,14.7-10.1,11.8-17.5c-2.4-6.2-10.3-8.4-14-14c-1.6-2.5-2.3-5.6-2.9-8.5c-2.1-10.4-4.1-20.8-6.2-31.1
	c-0.4-2.1-0.8-4.5,0.2-6.4c1.4-2.4,4.6-3.1,6.4-5.2c4.5-5.1-1.2-15.2,4.4-19.1c2.3-1.6,5.4-1.1,8.1-2.1c4.7-1.8,6.3-7.5,6.5-12.5
	c0.1-5-0.7-10.3,1.5-14.7c2.2-4.5,9.1-6.9,12.1-2.9c0.6,0.8,1,1.8,1.7,2.4c3.2,3,7.5-2.1,8.8-6.3c4.3,3.1,9.4,5.2,14.7,6.2
	c2.3-8.2,4.6-16.5,6.9-24.7c0.6-2.1,1.2-4.4,0.6-6.5c-2.2-7.2-13.1-4.1-20.2-6.3c-6.8-2.1-10.1-9.7-12.6-16.4
	c-3.4-9.2-6.9-18.4-10.3-27.6c-1.7-4.6-3.4-10.2-0.5-14.2c1.2-1.7,3-2.9,3.7-4.9c1-3.2-1.9-6.4-1.8-9.8c0-3.2,2.6-5.7,5-7.9
	c7.1-6.4,15.2-12.6,21.5-19.8c5.3-6.2,20.3-22.9,12.5-30.9c-2.7-2.7-6.8-3.2-10.5-4.2c-8.2-2.2-15.6-7.9-18.6-15.8
	c-1.1-2.8-1.8-6-4.2-7.8c-1.9-1.4-4.3-1.6-6.5-2.3c-7.8-2.6-11.6-13.2-7.2-20.2c0.9-1.4,2.1-2.8,2.2-4.5c0.2-3.8-4.8-5.3-8.4-6.3
	c-12.5-3.6-20.7-17.9-17.6-30.4c9.9-2.6,17.5,13.4,27.4,10.8c2.8-0.7,5-2.9,7.3-4.6c6.7-4.9,15.7-6.6,23.7-4.3
	c1.6,0.5,3.2,1.1,4.9,0.9c3.8-0.5,5.7-4.9,5.7-8.7s-1.4-7.5-0.9-11.3c1.1-9.3,12.5-16.5,9.7-25.4c-0.7-2.3-2.4-4.2-4-6.1
	c-3.8-4.3-7.6-8.7-11.4-13c-3.7-4.2-7.6-8.9-8.1-14.5c-1-11.5,12.7-22.2,22.4-25.2c1-0.3,2.1-0.6,2.9-1.3c2.3-1.8,1.7-5.5,0-7.9
	c-1.7-2.4-4.1-4.2-5.5-6.8c-3.6-7,4.3-9.4,4-14.9c-0.2-3.7-5.8-7.7-6.9-11.8C1027,324.9,1026.9,324.7,1026.9,324.5z"/>
<path id="XMLID_170_" fill="#B1E3FA" d="M969.2,861.6c6-2,11.7-7.2,12.4-13c0-0.1,0-0.1-0.1-0.2c-5.5-4.6-12-8.1-19.7-10.2
	c-14.2-3.9-35.4-2.3-45.4-15.3c-4.9-6.4-1-13.6,1.9-20.3c3.8-8.7,6.7-17.5,7.6-27c1.9-19.8-8.4-36.1-27.5-42.1
	c-7.8-2.5-38.4-4-33.5-18.5c2.4-7,10.2-12,16-15.9c8-5.4,16-11.6,21.1-19.9c5.3-8.9,5.3-20.1-2.7-27.4c-7.6-7-20.2-7.8-29.9-9.1
	c-14.4-1.9-36.7-3.8-42.9-20c-6-15.6,20.7-26,31-30.3c19.4-8.1,40-13.1,59.6-20.8c15.7-6.1,33.2-13.9,45.2-26.3
	c6.4-6.6,10.2-15.6,5.1-24.3c-2.3-3.8-6-6.8-9.8-8.8c-3.1-1.7-6-2.4-7.4-5.6c-2.2-4.9-3.4-9.2-8.1-12.4c-4.3-2.9-9.6-4.7-14.4-6.5
	c-9.5-3.4-19.6-4.7-29.7-4.6c-16.1,0.2-35.4,5-50.6-2.2c-4.1-1.9-13.3-8.4-10.1-14.1c1.3-2.4,5.8-3.8,8.1-4.9
	c5.4-2.5,10.7-5.1,16.2-7.5c8.5-3.7,17.2-7.2,25.5-11.3c8-4,16.8-9.7,20-18.6c0.9-2.4,1.3-4.9,1.3-7.5c-0.1-2.2-1-4.6-0.8-6.7
	c0.4-3.3,4-6.3,6.6-8.1c7.7-5.3,17.5-6.7,26.4-8.3c13.2-2.4,30-4.8,38.2-16.7c4.8-7,4.4-16.5,0-23.6c-4.3-7.1-11.6-11.3-19.2-14.1
	c-7.3-2.7-15.1-3.7-22.7-4.9c-8.7-1.3-19.9-2.1-27.1-7.6c-1.8-1.4-3.7-3.6-4.5-5.6c-0.8-1.8-0.5-1.8-0.7-3.1
	c0.1,0.9,0.3,0.1,0.3-0.3c0.1-0.1,0.3-0.3,0.6-0.5c9.6-8.6-4.6-22.7-14.1-14.1c-7,6.3-8.2,16.1-4.8,24.6
	c3.6,9.1,10.6,15.7,19.4,19.6c9.6,4.2,19.7,5.5,30,7.1c6.5,1,14.5,2.3,19.9,4.9c2.8,1.4,4.8,2.6,5.8,4.3c0.4,0.6,0.8,1.6,0.7,1.4
	c0.1,0.5,0.2,0.7,0.2,0.9c-0.1,0-0.2,0.1-0.4,0.4c0.7-0.9-0.8,0.6-1,0.8l0,0.1c-1.3,0.9-2.6,1.6-4,2.2l-0.1,0
	c-0.3,0.1-2.6,0.9-2.9,1c-1.7,0.6-3.5,1-5.2,1.5c-17.7,4.4-36.7,4.9-50.9,17.9c-3.5,3.2-6.4,7-8.3,11.3c-1.1,2.6-1.8,5.1-2,7.9
	c-0.1,2.6,1.1,5.5,0.7,8c-0.8,5.3-11.8,9.1-16.2,11.1c-9.7,4.4-19.6,8.4-29.3,12.9c-9.1,4.2-19.4,8.2-23.8,18
	c-9,19.9,10.4,38.2,28.1,43c18.5,5,37.6,0.5,56.3,1.2c4.3,0.2,8.4,0.7,12.5,1.8c2.4,0.6,4.9,1.4,7.2,2.3c1.1,0.4,3.4,1.9,5.2,3.1
	c1.7,1.1,3,2.8,3.8,4.7c0.4,0.9,0.8,1.9,1.2,2.8c2.6,4.6,7.6,6.6,11.4,10.1c2,1.9,1.3,5.2-0.2,6.4c-5.5,4.4-12.2,8.2-18.5,11.5
	c-18.8,9.7-39.6,14.8-59.5,21.8c-18.2,6.3-40.3,13.9-52.8,29.5c-12.9,16.2-8.6,37.2,7.1,49.8c7.3,5.9,15.9,10,25,12.1
	c10.5,2.4,21.4,2.8,31.9,5.1c1.9,0.4,6.8,1.2,8,2.3c0,0,0.1,0.1,0,0.2c-0.1,0.2-0.1,0.8-0.3,1.2c-1.1,1.9-2.3,3.6-3.8,5.2
	c-6.3,6.6-14.5,10.9-21.5,16.7c-7.4,6.1-13.9,14.3-15.4,24c-1.4,9.4,2.2,18.8,9.4,25c7.1,6.1,15.9,9.1,25,10.9
	c7.7,1.5,18.2,2.3,23.4,9c9.4,12.2-0.6,30.7-5.5,42.6c-3.9,9.7-4.5,20.1,0.5,29.6c4.2,7.7,11.8,13.6,19.6,17.2
	c8.7,4,17.8,5.5,27.2,7.1c7.6,1.3,16,2.6,22.6,7c0,0,0.1,0,0.2,0C968,862,968.6,861.8,969.2,861.6z M962.5,365.3
	c0,0.3,0.1,0.5,0.1,0.6c0,0,0,0,0,0C962.5,365.8,962.5,365.6,962.5,365.3z M950.5,528c0,0-0.1,0.2-0.2,0.4
	C950.4,528.1,950.4,528,950.5,528z M950,530.9c-0.1,0-0.1,0-0.1,0C949.9,530.9,949.9,530.9,950,530.9z"/>
<g id="XMLID_190_">
	<g id="XMLID_524_">
		<path id="XMLID_552_" fill="#FFFFFF" d="M151.6,420.2c12.1,0,17.7,4.4,17.7,15v4.6c0,10.3-5.9,15.1-17.7,15.1h-3.4v15.3H139v-50.1
			H151.6z M151.6,446.3c6.5,0,8.6-2.2,8.6-7v-3.7c0-4.7-1.6-7.2-8.5-7.2h-3.6v17.9H151.6z"/>
		<path id="XMLID_549_" fill="#FFFFFF" d="M174.5,455.9v-9.2c0-10.1,4.8-15,14.9-15s14.9,4.6,14.9,15v9.2c0,10.3-4.8,15-14.9,15
			S174.5,466.3,174.5,455.9z M195.3,455.5v-8.3c0-4.7-1.2-7.5-5.9-7.5c-4.7,0-5.9,2.7-5.9,7.5v8.3c0,4.7,1.2,7.5,5.9,7.5
			C194,463,195.3,460.2,195.3,455.5z"/>
		<path id="XMLID_547_" fill="#FFFFFF" d="M230.6,441.1c-5.8-0.8-10.3,1.5-10.3,7.2v22h-8.9v-38.4h8.2l0.4,4c1.6-2.7,5.9-5,10.7-4.2
			V441.1z"/>
		<path id="XMLID_545_" fill="#FFFFFF" d="M236.7,425.3l8.9-1v7.5h6.5v8.1h-6.5v16.2c0,4.2,0.7,7.1,6.6,6.4v7.8
			c-11.3,1.2-15.5-2.7-15.5-14V425.3z"/>
		<path id="XMLID_543_" fill="#FFFFFF" d="M288.4,470.2h-7.9l-0.5-3.9c-2.4,2.9-5.8,4.2-9,4.2c-6.3,0.1-12.5-3.2-12.5-15v-23.7h8.8
			v23.6c0,4.9,2.1,7,5.8,7c3.4,0,6.2-1.7,6.2-6.6v-23.9h9.1V470.2z"/>
		<path id="XMLID_540_" fill="#FFFFFF" d="M296.2,456.1v-9.6c0-10.7,4.9-14.8,12.5-14.8c4.4,0,7.2,1.7,8.7,4.4l0.6-4.2h7.3v39.3
			c0,9.9-5.2,14.7-14.5,14.7c-9.4,0-13.8-4-13.8-12.2h8.5c0,3,1.8,4.6,5.3,4.6c4.7,0,6.2-2.4,6.2-7.2v-4.6c-1.4,2.1-3.6,3.9-8.1,3.9
			C301,470.4,296.2,465.9,296.2,456.1z M316.6,454.8v-7.5c0-4.4-1.4-7.7-5.9-7.7c-3.5,0-5.7,1.8-5.7,7.3v8c0,5.4,1.8,7.6,5.5,7.6
			C315.2,462.6,316.6,459.6,316.6,454.8z"/>
		<path id="XMLID_537_" fill="#FFFFFF" d="M332.7,445.1c-0.6-9.6,4.6-13.4,13.7-13.4c10,0,14.4,5,14.4,15v23.6h-7.3l-0.8-4.4
			c-2.1,3-5.8,4.9-10.1,4.9c-6.3,0-11.1-3.6-11.1-10.9c0-9,7.5-12.6,20.7-11.7c0-5.7-1.1-8.6-5.8-8.6c-3.9,0-5.3,1.4-5.3,5.5H332.7z
			 M340,459.2c0,2.5,2.2,3.4,5.3,3.4c5.2,0,6.6-3.8,7-7.6C343.2,454.1,340,456.1,340,459.2z"/>
		<path id="XMLID_535_" fill="#FFFFFF" d="M369,420.1h8.9v35.9c0,4.2,0.8,5.6,4.5,5.6v8.6c-10.3,0-13.4-3.1-13.4-14V420.1z"/>
		<path id="XMLID_533_" fill="#7ED3F7" d="M156.9,536.4l-9.9-20.2l1,14.3v17.7h-9v-50.1h8.6l10.2,22.2l10.3-22.2h8.6v50.1h-9v-17.7
			l1-14.3l-9.9,20.2H156.9z"/>
		<path id="XMLID_530_" fill="#7ED3F7" d="M184,523.1c-0.6-9.6,4.6-13.4,13.7-13.4c10,0,14.4,5,14.4,15v23.6h-7.3l-0.8-4.4
			c-2.1,3-5.8,4.9-10.1,4.9c-6.3,0-11.1-3.6-11.1-10.9c0-9,7.5-12.6,20.7-11.7c0-5.7-1.1-8.6-5.8-8.6c-3.9,0-5.3,1.4-5.3,5.5H184z
			 M191.2,537.2c0,2.5,2.2,3.4,5.3,3.4c5.2,0,6.6-3.8,7-7.6C194.4,532.1,191.2,534.1,191.2,537.2z"/>
		<path id="XMLID_527_" fill="#7ED3F7" d="M227.4,509.9l0.6,4.2c1.5-2.7,4.7-4.4,9-4.4c7.5,0,12.6,4.2,12.6,14.8v9.9
			c0,9-4.4,14.3-12.9,14.3c-3.1,0-6.4-0.8-7.9-3.4v14.6H220v-50H227.4z M240.8,533.9v-9c0-5.5-2.3-7.3-5.8-7.3c-4.4,0-6,3.2-6,7.7
			v8.8c0,4.6,2.2,6.4,5.8,6.4C238.6,540.4,240.8,538.6,240.8,533.9z"/>
		<path id="XMLID_525_" fill="#7ED3F7" d="M267,543.6c0,6.5-10.1,6.6-10.1,0C256.9,536.9,267,537,267,543.6z"/>
	</g>
</g>
<g id="XMLID_148_">
	<g id="XMLID_118_">
		<polygon id="XMLID_153_" fill="#33773A" points="1020.3,325.3 877.6,325.3 949,223.2 		"/>
		<path id="XMLID_149_" fill="#FFFFFF" d="M949,223.2l-21.9,31.3l3.6,5.2c0.7,1.1,2.3,1.1,3.1,0l5.3-7.6c0.7-1.1,2.3-1.1,3.1,0
			l5.3,7.6c0.7,1.1,2.3,1.1,3.1,0l5.3-7.6c0.7-1.1,2.3-1.1,3.1,0l5.3,7.6c0.7,1.1,2.3,1.1,3.1,0l3.6-5.2L949,223.2z"/>
	</g>
	<g id="XMLID_154_">
		<polygon id="XMLID_156_" fill="#3B8341" points="938.4,325.3 832.5,325.3 885.4,249.6 		"/>
		<path id="XMLID_155_" fill="#FFFFFF" d="M885.4,249.6l-16.2,23.2l2.9,4.2c0.4,0.6,1.4,0.6,1.8,0l4.4-6.2c0.4-0.6,1.4-0.6,1.8,0
			l4.4,6.2c0.4,0.6,1.4,0.6,1.8,0l4.4-6.2c0.4-0.6,1.4-0.6,1.8,0l4.4,6.2c0.4,0.6,1.4,0.6,1.8,0l2.9-4.2L885.4,249.6z"/>
	</g>
</g>
<g id="XMLID_158_">
	<g id="XMLID_162_">
		<polygon id="XMLID_164_" fill="#33773A" points="962.3,638.5 819.7,638.5 891,536.4 		"/>
		<path id="XMLID_163_" fill="#FFFFFF" d="M891,536.4l-21.9,31.3l3.6,5.2c0.7,1.1,2.3,1.1,3.1,0l5.3-7.6c0.7-1.1,2.3-1.1,3.1,0
			l5.3,7.6c0.7,1.1,2.3,1.1,3.1,0l5.3-7.6c0.7-1.1,2.3-1.1,3.1,0l5.3,7.6c0.7,1.1,2.3,1.1,3.1,0l3.6-5.2L891,536.4z"/>
	</g>
	<g id="XMLID_159_">
		<polygon id="XMLID_161_" fill="#3B8341" points="880.4,638.5 774.6,638.5 827.5,562.8 		"/>
		<path id="XMLID_160_" fill="#FFFFFF" d="M827.5,562.8L811.2,586l2.9,4.2c0.4,0.6,1.4,0.6,1.8,0l4.4-6.2c0.4-0.6,1.4-0.6,1.8,0
			l4.4,6.2c0.4,0.6,1.4,0.6,1.8,0l4.4-6.2c0.4-0.6,1.4-0.6,1.8,0l4.4,6.2c0.4,0.6,1.4,0.6,1.8,0l2.9-4.2L827.5,562.8z"/>
	</g>
</g>
<g id="XMLID_98_">
	<path id="XMLID_404_" fill="#3B8341" d="M968,390.6L968,390.6c-10.6,0-19.2-8.6-19.2-19.2v-15.8c0-10.6,8.6-19.2,19.2-19.2l0,0
		c10.6,0,19.2,8.6,19.2,19.2v15.8C987.2,382,978.6,390.6,968,390.6z"/>
	<polygon id="XMLID_403_" fill="#0F491D" points="980.8,365.5 975.9,365.5 975.9,373.1 971.2,376.4 971.2,349.1 966.3,349.1 
		966.3,366.1 961.7,362.7 961.7,355.1 956.7,355.1 956.7,365.2 966.3,372.1 966.3,420 971.2,420 971.2,382.5 980.8,375.6 	"/>
</g>
<g id="XMLID_142_">
	<path id="XMLID_144_" fill="#3B8341" d="M912.9,732.9L912.9,732.9c-10.6,0-19.2-8.6-19.2-19.2v-15.8c0-10.6,8.6-19.2,19.2-19.2l0,0
		c10.6,0,19.2,8.6,19.2,19.2v15.8C932,724.3,923.4,732.9,912.9,732.9z"/>
	<polygon id="XMLID_143_" fill="#0F491D" points="925.6,707.8 920.7,707.8 920.7,715.4 916.1,718.7 916.1,691.4 911.1,691.4 
		911.1,708.4 906.5,705 906.5,697.4 901.6,697.4 901.6,707.6 911.1,714.4 911.1,762.3 916.1,762.3 916.1,724.8 925.6,717.9 	"/>
</g>
<g id="XMLID_139_">
	<path id="XMLID_141_" fill="#3B8341" d="M774.6,495.1L774.6,495.1c-10.6,0-19.2-8.6-19.2-19.2v-15.8c0-10.6,8.6-19.2,19.2-19.2h0
		c10.6,0,19.2,8.6,19.2,19.2v15.8C793.7,486.5,785.1,495.1,774.6,495.1z"/>
	<polygon id="XMLID_140_" fill="#0F491D" points="787.3,470 782.4,470 782.4,477.5 777.8,480.9 777.8,453.6 772.8,453.6 
		772.8,470.5 768.2,467.2 768.2,459.6 763.3,459.6 763.3,469.7 772.8,476.6 772.8,524.5 777.8,524.5 777.8,486.9 787.3,480.1 	"/>
</g>
<g id="XMLID_145_">
	<path id="XMLID_147_" fill="#3B8341" d="M1013.1,133.9L1013.1,133.9c-10.6,0-19.2-8.6-19.2-19.2V98.9c0-10.6,8.6-19.2,19.2-19.2h0
		c10.6,0,19.2,8.6,19.2,19.2v15.8C1032.3,125.3,1023.7,133.9,1013.1,133.9z"/>
	<polygon id="XMLID_146_" fill="#0F491D" points="1025.9,108.8 1021,108.8 1021,116.4 1016.3,119.7 1016.3,92.4 1011.4,92.4 
		1011.4,109.4 1006.8,106 1006.8,98.5 1001.8,98.5 1001.8,108.6 1011.4,115.4 1011.4,163.3 1016.3,163.3 1016.3,125.8 1025.9,118.9 
			"/>
</g>
<g id="XMLID_116_">
	<path id="XMLID_112_" fill="#3B8341" d="M868.9,239.1h-41.3c-3.1,0-5.3-3.2-4-6.1l20.6-48.2c1.5-3.5,6.5-3.5,8,0l20.6,48.2
		C874.2,235.9,872.1,239.1,868.9,239.1z"/>
	<polygon id="XMLID_114_" fill="#0F491D" points="860.3,224.1 855.4,224.1 855.4,231.7 850.8,235 850.8,207.7 845.8,207.7 
		845.8,224.7 841.2,221.4 841.2,213.8 836.3,213.8 836.3,223.9 845.8,230.8 845.8,264.2 850.8,264.2 850.8,241.1 860.3,234.2 	"/>
</g>
<g id="XMLID_119_">
	<path id="XMLID_121_" fill="#3B8341" d="M1014.6,677.9h-41.3c-3.1,0-5.3-3.2-4-6.1l20.6-48.2c1.5-3.5,6.5-3.5,8,0l20.6,48.2
		C1019.9,674.7,1017.8,677.9,1014.6,677.9z"/>
	<polygon id="XMLID_120_" fill="#0F491D" points="1006,662.9 1001.1,662.9 1001.1,670.4 996.4,673.8 996.4,646.5 991.5,646.5 
		991.5,663.5 986.9,660.1 986.9,652.5 982,652.5 982,662.6 991.5,669.5 991.5,702.9 996.4,702.9 996.4,679.8 1006,673 	"/>
</g>
<g id="XMLID_124_">
	<path id="XMLID_126_" fill="#3B8341" d="M858.2,822.1h-41.3c-3.1,0-5.3-3.2-4-6.1l20.6-48.2c1.5-3.5,6.5-3.5,8,0l20.6,48.2
		C863.4,818.9,861.3,822.1,858.2,822.1z"/>
	<polygon id="XMLID_125_" fill="#0F491D" points="849.6,807.1 844.7,807.1 844.7,814.6 840,818 840,790.7 835.1,790.7 835.1,807.6 
		830.4,804.3 830.4,796.7 825.5,796.7 825.5,806.8 835.1,813.7 835.1,847.1 840,847.1 840,824 849.6,817.2 	"/>
</g>
<path id="XMLID_184_" fill="#FFFFFF" d="M748.8,669.2c1.7,0,3.3,0.2,4.9,0.5c2.8-11.9,13.5-20.7,26.3-20.7c10,0,18.6,5.4,23.3,13.4
	c3.2-2,7-3.3,11.1-3.3c7.8,0,14.6,4.4,18.1,10.9c2-0.5,4.1-0.8,6.2-0.8c14.5,0,26.3,11.8,26.3,26.3c0,14.5-11.8,26.3-26.3,26.3
	c-4,0-7.7-0.9-11.1-2.5c-4.9,6.5-12.7,10.7-21.5,10.7c-5,0-9.7-1.4-13.7-3.8c-4.9,4.7-11.4,7.5-18.7,7.5c-9.4,0-17.7-4.8-22.5-12.1
	c-0.8,0.1-1.5,0.1-2.3,0.1c-14.5,0-26.3-11.8-26.3-26.3C722.5,681,734.2,669.2,748.8,669.2z"/>
<path id="XMLID_166_" fill="#FFFFFF" d="M742.4,230.7c1.7,0,3.3,0.2,4.9,0.5c2.8-11.9,13.5-20.7,26.3-20.7c10,0,18.6,5.4,23.3,13.4
	c3.2-2,7-3.3,11.1-3.3c7.8,0,14.6,4.4,18.1,10.9c2-0.5,4.1-0.8,6.2-0.8c14.5,0,26.3,11.8,26.3,26.3c0,14.5-11.8,26.3-26.3,26.3
	c-4,0-7.7-0.9-11.1-2.5c-4.9,6.5-12.7,10.7-21.5,10.7c-5,0-9.7-1.4-13.7-3.8c-4.9,4.7-11.4,7.5-18.7,7.5c-9.4,0-17.7-4.8-22.5-12.1
	c-0.8,0.1-1.5,0.1-2.3,0.1c-14.5,0-26.3-11.8-26.3-26.3C716.1,242.5,727.9,230.7,742.4,230.7z"/>
<path id="XMLID_181_" fill="#FFFFFF" d="M983.5,435.7c2.1,0,4.2,0.2,6.2,0.6c3.6-14.9,16.9-26,32.9-26c12.5,0,23.3,6.8,29.2,16.8
	c4-2.6,8.8-4.1,13.9-4.1c9.8,0,18.3,5.5,22.7,13.6c2.5-0.6,5.1-1,7.8-1c18.2,0,33,14.8,33,33c0,18.2-14.8,33-33,33
	c-5,0-9.7-1.1-13.9-3.1c-6.2,8.1-15.9,13.4-26.9,13.4c-6.3,0-12.2-1.7-17.2-4.7c-6.1,5.8-14.3,9.5-23.4,9.5
	c-11.8,0-22.1-6-28.2-15.1c-1,0.1-1.9,0.1-2.9,0.1c-18.2,0-33-14.8-33-33C950.5,450.4,965.3,435.7,983.5,435.7z"/>
<path id="XMLID_3112_" fill="#FFFFFF" d="M1231.9,668.3c-8.5,0-15.7-5.8-17.7-13.7c-0.7-2.8-3.3-4.6-6.1-4.6h-1.7
	c-2.9,0-5.4,1.9-6.1,4.6c-2.1,7.9-9.2,13.7-17.7,13.7c-8.5,0-15.7-5.8-17.7-13.7c-0.7-2.8-3.3-4.6-6.1-4.6h-1.7
	c-2.9,0-5.4,1.9-6.1,4.6c-2.1,7.9-9.2,13.7-17.7,13.7s-15.7-5.8-17.7-13.7c-0.7-2.8-3.3-4.6-6.1-4.6h-1.7c-2.9,0-5.4,1.9-6.1,4.6
	c-2.1,7.9-9.2,13.7-17.7,13.7c-8.5,0-15.7-5.8-17.7-13.7c-0.7-2.8-3.3-4.6-6.1-4.6l0,0c-4.2,0-7.3,4-6.2,8c3.6,13.3,15.7,23,30,23
	c7.9,0,15-2.9,20.5-7.8c2.4-2.1,6-2.1,8.3,0c5.5,4.8,12.7,7.8,20.5,7.8s15-2.9,20.5-7.8c2.4-2.1,6-2.1,8.3,0
	c5.5,4.8,12.7,7.8,20.5,7.8c7.9,0,15-2.9,20.5-7.8c2.4-2.1,6-2.1,8.3,0c5.5,4.8,12.7,7.8,20.5,7.8c14.4,0,26.5-9.8,30-23
	c1.1-4.1-2-8-6.2-8l0,0c-2.9,0-5.4,1.9-6.1,4.6C1247.5,662.5,1240.4,668.3,1231.9,668.3z"/>
<path id="XMLID_182_" fill="#FFFFFF" d="M1281.3,717.7c-8.5,0-15.7-5.8-17.7-13.7c-0.7-2.8-3.3-4.6-6.1-4.6h-1.7
	c-2.9,0-5.4,1.9-6.1,4.6c-2.1,7.9-9.2,13.7-17.7,13.7c-8.5,0-15.7-5.8-17.7-13.7c-0.7-2.8-3.3-4.6-6.1-4.6h-1.7
	c-2.9,0-5.4,1.9-6.1,4.6c-2.1,7.9-9.2,13.7-17.7,13.7s-15.7-5.8-17.7-13.7c-0.7-2.8-3.3-4.6-6.1-4.6h-1.7c-2.9,0-5.4,1.9-6.1,4.6
	c-2.1,7.9-9.2,13.7-17.7,13.7c-8.5,0-15.7-5.8-17.7-13.7c-0.7-2.8-3.3-4.6-6.1-4.6l0,0c-4.2,0-7.3,4-6.2,8c3.6,13.3,15.7,23,30,23
	c7.9,0,15-2.9,20.5-7.8c2.4-2.1,6-2.1,8.3,0c5.5,4.8,12.7,7.8,20.5,7.8s15-2.9,20.5-7.8c2.4-2.1,6-2.1,8.3,0
	c5.5,4.8,12.7,7.8,20.5,7.8c7.9,0,15-2.9,20.5-7.8c2.4-2.1,6-2.1,8.3,0c5.5,4.8,12.7,7.8,20.5,7.8c14.4,0,26.5-9.8,30-23
	c1.1-4.1-2-8-6.2-8l0,0c-2.9,0-5.4,1.9-6.1,4.6C1297,711.9,1289.8,717.7,1281.3,717.7z"/>
<path id="XMLID_186_" fill="#FFFFFF" d="M650.3,371.3c-8.5,0-15.7-5.8-17.7-13.7c-0.7-2.8-3.3-4.6-6.1-4.6h-1.7
	c-2.9,0-5.4,1.9-6.1,4.6c-2.1,7.9-9.2,13.7-17.7,13.7c-8.5,0-15.7-5.8-17.7-13.7c-0.7-2.8-3.3-4.6-6.1-4.6h-1.7
	c-2.9,0-5.4,1.9-6.1,4.6c-2.1,7.9-9.2,13.7-17.7,13.7s-15.7-5.8-17.7-13.7c-0.7-2.8-3.3-4.6-6.1-4.6H526c-2.9,0-5.4,1.9-6.1,4.6
	c-2.1,7.9-9.2,13.7-17.7,13.7c-8.5,0-15.7-5.8-17.7-13.7c-0.7-2.8-3.3-4.6-6.1-4.6l0,0c-4.2,0-7.3,4-6.2,8c3.6,13.3,15.7,23,30,23
	c7.9,0,15-2.9,20.5-7.8c2.4-2.1,6-2.1,8.3,0c5.5,4.8,12.7,7.8,20.5,7.8c7.9,0,15-2.9,20.5-7.8c2.4-2.1,6-2.1,8.3,0
	c5.5,4.8,12.7,7.8,20.5,7.8c7.9,0,15-2.9,20.5-7.8c2.4-2.1,6-2.1,8.3,0c5.5,4.8,12.7,7.8,20.5,7.8c14.4,0,26.5-9.8,30-23
	c1.1-4.1-2-8-6.2-8l0,0c-2.9,0-5.4,1.9-6.1,4.6C666,365.5,658.8,371.3,650.3,371.3z"/>
<path id="XMLID_183_" fill="#FFFFFF" d="M699.8,420.7c-8.5,0-15.7-5.8-17.7-13.7c-0.7-2.8-3.3-4.6-6.1-4.6h-1.7
	c-2.9,0-5.4,1.9-6.1,4.6c-2.1,7.9-9.2,13.7-17.7,13.7c-8.5,0-15.7-5.8-17.7-13.7c-0.7-2.8-3.3-4.6-6.1-4.6h-1.7
	c-2.9,0-5.4,1.9-6.1,4.6c-2.1,7.9-9.2,13.7-17.7,13.7s-15.7-5.8-17.7-13.7c-0.7-2.8-3.3-4.6-6.1-4.6h-1.7c-2.9,0-5.4,1.9-6.1,4.6
	c-2.1,7.9-9.2,13.7-17.7,13.7c-8.5,0-15.7-5.8-17.7-13.7c-0.7-2.8-3.3-4.6-6.1-4.6l0,0c-4.2,0-7.3,4-6.2,8c3.6,13.3,15.7,23,30,23
	c7.9,0,15-2.9,20.5-7.8c2.4-2.1,6-2.1,8.3,0c5.5,4.8,12.7,7.8,20.5,7.8c7.9,0,15-2.9,20.5-7.8c2.4-2.1,6-2.1,8.3,0
	c5.5,4.8,12.7,7.8,20.5,7.8c7.9,0,15-2.9,20.5-7.8c2.4-2.1,6-2.1,8.3,0c5.5,4.8,12.7,7.8,20.5,7.8c14.4,0,26.5-9.8,30-23
	c1.1-4.1-2-8-6.2-8l0,0c-2.9,0-5.4,1.9-6.1,4.6C715.4,414.9,708.3,420.7,699.8,420.7z"/>
</svg>
