<?xml version="1.0" encoding="utf-8"?>
<!-- Generator: Adobe Illustrator 26.3.1, SVG Export Plug-In . SVG Version: 6.00 Build 0)  -->
<svg version="1.1" id="Layer_1" xmlns="http://www.w3.org/2000/svg" xmlns:xlink="http://www.w3.org/1999/xlink" x="0px" y="0px"
	 viewBox="0 0 1597.3 3024.58" style="enable-background:new 0 0 1597.3 3024.58;" xml:space="preserve">
<style type="text/css">
	.st0{fill:none;stroke:#3B3C43;stroke-width:38.6002;stroke-linecap:round;stroke-linejoin:round;stroke-miterlimit:10;}
	.st1{fill:none;stroke:#3B3C43;stroke-width:19.5218;stroke-linecap:round;stroke-linejoin:round;stroke-miterlimit:10;}
</style>
<g>
	<path class="st0" d="M163.93,1648.38l16.44,27.4c3.65,6.08,4.82,13.34,3.27,20.26l-55.6,248.58c-3.3,14.76,5.87,29.43,20.58,32.94
		l36.14,8.61c10.04,2.39,17.92,10.18,20.42,20.19l22.72,90.87c3.84,15.38,19.81,24.38,34.96,19.72l95.58-29.41
		c13.32-4.1,27.6,2.35,33.33,15.05l37.74,83.56c3.13,6.94,3.27,14.87,0.37,21.91l-63.44,154.06c-6.01,14.6,1.4,31.26,16.27,36.57
		l6.47,2.31c11.27,4.03,18.67,14.84,18.34,26.81l-6.82,245.39c-0.1,3.62-0.91,7.19-2.39,10.5l-65.77,147.31
		c-9.88,22.12,11.45,45.35,34.33,37.39l106.75-37.13c3.91-1.36,8.08-1.83,12.19-1.36l187.14,21.19c3.98,0.45,7.82,1.76,11.24,3.84
		l83.47,50.68c10.01,6.08,22.76,5.19,31.83-2.21l120.23-98.08c4.94-4.03,11.11-6.23,17.48-6.23h21.43
		c18.31,0,31.56-17.48,26.63-35.11l-39.95-142.68c-1.87-6.67-1.16-13.79,1.97-19.96l118.39-233.39
		c5.1-10.06,15.81-16.02,27.06-15.04l41.68,3.62c14.7,1.28,27.82-9.22,29.8-23.84l8.65-64.01c2.9-21.45-18.85-37.76-38.63-28.97
		l-0.77,0.34c-12.48,5.55-27.14,1.15-34.51-10.35l-74.13-115.64c-4.51-7.04-5.6-15.74-2.95-23.67l34.12-102.36
		c2-6,6-11.14,11.33-14.55l76.58-49.01c5.94-3.8,10.21-9.74,11.92-16.58l20.36-81.46c2.09-8.35,0.17-17.19-5.19-23.93
		l-132.24-166.15c-3.9-4.89-6.02-10.96-6.02-17.22v-36.45c0-6.66-2.41-13.1-6.78-18.13l-47.52-54.71
		c-15.55-17.9-2.84-45.79,20.87-45.79h137.8c11.84,0,22.37-7.54,26.18-18.75l57.45-168.91c4.41-12.96-1.33-27.19-13.49-33.47
		l-45.71-23.6c-9.68-5-15.53-15.22-14.92-26.1l1.95-35.12c0.51-9.21,5.58-17.55,13.51-22.25l75.35-44.65
		c8.4-4.98,13.55-14.02,13.55-23.79V821.16c0-5.8-1.82-11.45-5.21-16.16l-48.54-67.41c-8.03-11.15-6.65-26.51,3.23-36.05
		l83.87-80.98c5.16-4.98,12.04-7.76,19.21-7.76h63.59c9.66,0,18.61-5.04,23.63-13.29l95.73-157.5c7.31-12.03,4.42-27.63-6.72-36.24
		l-51.56-39.84c-7.29-5.63-16.91-7.27-25.65-4.35l-9.91,3.3c-16.73,5.58-34.34-5.72-36.24-23.26l-9.16-84.78
		c-1.31-12.09-10.36-21.9-22.3-24.19l-200.77-38.38c-17.74-3.39-33.92,10.86-32.79,28.88v0c0.88,14.03-8.92,26.49-22.76,28.95
		L929.9,276.78c-4.14,0.74-8.39,0.52-12.44-0.64l-112.74-32.21c-8.1-2.31-16.81-0.81-23.67,4.09l-49.82,35.58
		c-10.69,7.63-25.26,6.7-34.89-2.24L682.5,268.5c-11.96-11.1-11.75-30.09,0.44-40.93l27.21-24.19c10.22-9.08,12.27-24.27,4.81-35.74
		l-24.77-38.1c-6.64-10.22-19.2-14.89-30.91-11.48l-179.45,52.2c-5.09,1.48-9.65,4.39-13.13,8.39l-87.07,99.96
		c-5.79,6.64-8.06,15.64-6.12,24.24l89.53,397.51c0.96,4.28,0.9,8.73-0.2,12.98l-113.68,440.52c-3.01,11.68,1.89,23.96,12.12,30.36
		l23.25,14.53c11.42,7.14,16.04,21.47,10.93,33.94l-112.93,275.48c-1.58,3.86-4.02,7.31-7.12,10.09l-106.24,95.3
		C159.32,1622.42,157.12,1637.02,163.93,1648.38z"/>
	<g>
		<path class="st1" d="M400.55,2678.69l118.21,15.04c14.89,1.89,29.54-4.91,37.69-17.51v0c7.19-11.11,19.53-17.82,32.76-17.82h23.32
			c10.55,0,20.64,4.27,27.99,11.83l35.26,36.3c16.11,16.59,43.03,15.6,57.89-2.11l23.73-28.29c4.76-5.67,11.03-9.87,18.08-12.11
			l166.94-53.05"/>
		<path class="st1" d="M406.77,2454.9l57.19,23.64c13.92,5.75,29.9-0.48,36.24-14.14l9.11-19.63c5.29-11.39,17.48-17.89,29.88-15.93
			l39.54,6.24c14.39,2.27,28.13-6.82,31.66-20.95l9.3-37.21c2.88-11.53-1.79-23.62-11.68-30.21l-11.38-7.58
			c-14.04-9.36-16.73-28.88-5.75-41.69l28.78-33.58c3.17-3.7,7.24-6.51,11.82-8.16l26.71-9.62c13.11-4.72,20.79-18.33,18.04-31.99
			l-2.11-10.5c-1.68-8.34-7.04-15.48-14.6-19.4l-44.49-23.13c-8.23-4.28-13.83-12.35-14.94-21.56l-4.26-35.16
			c-1.71-14.11-13.69-24.73-27.91-24.73h-60.42c-10.14,0-19.49-5.46-24.47-14.28l-8.89-15.72c-7.07-12.51-3.57-28.34,8.12-36.7
			l29.5-21.1c15.72-11.25,15.67-34.63-0.1-45.81l-31.9-22.6c-15.6-11.05-37.44-3.65-43.1,14.61v0c-4.8,15.48-21.67,23.7-36.82,17.95
			l-28.69-10.88c-5.78-2.19-12.13-2.42-18.05-0.64l-152,45.62"/>
		<path class="st1" d="M362.25,1941.7v-36.05c0-3.06,0.67-6.08,1.97-8.85l45.74-97.44c2.71-5.77,2.63-12.46-0.23-18.16l-44.32-88.64
			c-2.05-4.11-5.41-7.42-9.54-9.43l-53.14-25.76c-8.81-4.27-19.41-1.83-25.46,5.87h0c-7.71,9.82-22.27,10.69-31.1,1.86l-7.1-7.1
			c-4.96-4.96-12.1-7.09-18.97-5.66l-47.82,9.95"/>
		<path class="st1" d="M671.49,2190.39l63.03-13.28c7.86-1.66,16.04-0.85,23.43,2.32l160.55,68.81c19,8.14,41.06,0.06,50.3-18.43
			l14.15-28.3c4.98-9.95,13.96-17.31,24.7-20.22l51.33-13.93"/>
		<path class="st1" d="M505.6,1941.7l65.69-35.2c6.55-3.51,14.25-4.14,21.28-1.74l20.16,6.87c23.5,8.01,44.3-17.51,31.71-38.91v0
			c-5.27-8.96-4.88-20.15,1-28.72l12.99-18.93c7.5-10.93,21.88-14.73,33.8-8.92l108.11,52.66c6.63,3.23,14.29,3.58,21.18,0.98
			l101.12-38.19c11.6-4.38,24.68-0.22,31.63,10.04l38.23,56.51c5.84,8.63,16.15,13.09,26.43,11.43l22.19-3.58
			c16.28-2.62,31.03,9.94,31.03,26.43v37.96"/>
		<path class="st1" d="M659.59,1823.38l-53.12-53.4c-6.37-6.4-6.61-16.66-0.55-23.36l70.05-77.43c3.22-3.56,7.79-5.59,12.59-5.59
			h21.65c5.77,0,11.14-2.93,14.26-7.77l32.77-50.8c4.33-6.72,3.39-15.55-2.26-21.21l-12.16-12.16c-5.71-5.71-6.61-14.64-2.15-21.37
			l14.73-22.26c5.13-7.76,15.55-9.94,23.37-4.89l18.67,12.06c7.48,4.83,17.41,3.07,22.77-4.04l40.54-53.8
			c2.85-3.78,7.15-6.2,11.86-6.67l102.44,7.73"/>
		<path class="st1" d="M818.86,1532.97l-48.31-74.01c-2.39-3.66-3.66-7.94-3.66-12.31v-6.94c0-12.44-10.09-22.53-22.53-22.53h-6.89
			c-12.44,0-22.53,10.09-22.53,22.53v4.17c0,15.36-15.03,26.22-29.61,21.38l-20.51-6.8c-9.22-3.05-15.44-11.67-15.44-21.38v-12.75
			c0-14.94-14.27-25.74-28.64-21.68l-39.2,11.06c-11.43,3.22-23.41-2.98-27.36-14.18h0c-3.75-10.61-14.75-16.83-25.77-14.57
			l-45.13,9.26c-12.85,2.64-20.74,15.65-17.13,28.26l4.99,17.45c1.24,4.33,1.15,8.94-0.26,13.22l-25.33,77.05
			c-2.73,8.3-10.01,14.27-18.68,15.33l-47.84,5.82c-7.64,0.93-14.27,5.69-17.59,12.63l-47.39,98.88"/>
		<path class="st1" d="M615.01,1404.26l15.26-37.75c2.12-5.25,6.02-9.58,11.02-12.23L827.93,1255
			c10.45-5.56,15.31-17.89,11.46-29.09l-14.37-41.8c-3.61-10.5,0.43-22.11,9.78-28.11l102.25-65.48c3.52-2.26,6.4-5.39,8.34-9.1
			l9.23-17.62c4.16-7.93,12.37-12.9,21.33-12.9h44.5c17.79,0,29.44,18.64,21.64,34.63l0,0c-6.66,13.66,0.84,30,15.55,33.85
			l91.75,23.99"/>
		<path class="st1" d="M694.26,1326.1l-9.01-67.14c-2.14-15.97-18.69-25.69-33.68-19.8h0c-9.5,3.73-15.75,12.9-15.75,23.11v17.43
			c0,11.64-8.08,21.71-19.44,24.23l-3.84,0.85c-10.41,2.31-21.13-2.28-26.64-11.4l-13.2-21.87c-3.94-6.52-10.66-10.88-18.22-11.81
			l-161.9-19.94"/>
		<path class="st1" d="M833.8,1156.65l-18.28-110.58c-2.24-13.57-17.8-20.24-29.17-12.51l-85.51,58.1
			c-4.21,2.86-9.39,3.89-14.38,2.87l-81.41-16.71c-6.2-1.27-12.63,0.66-17.11,5.13l-28.01,28.01c-3.53,3.53-8.32,5.52-13.32,5.52
			l0,0c-14.04,0-23.15-14.81-16.81-27.34l5.59-11.06c4.5-8.9,1.28-19.77-7.35-24.79l-132.98-77.27"/>
		<path class="st1" d="M595.12,1075.78l34.39-120.37c1.15-4.01,0.77-8.31-1.05-12.07l-29.2-60.22c-2.58-5.31-2.21-11.58,0.98-16.56
			l26.04-40.69c3.12-4.88,8.51-7.82,14.3-7.82h36.7c9.37,0,16.97-7.6,16.97-16.97v-32.38c0-4.58-1.85-8.97-5.14-12.17l-56.17-54.62"
			/>
		<path class="st1" d="M464.52,706.88l96.43,13.82c3.63,0.52,7.32,0.25,10.84-0.78l196.75-57.97c13.58-4,21.31-18.29,17.22-31.84
			l-21.92-72.77c-3.25-10.78-13.18-18.16-24.44-18.16h-39.53c-10.12,0-19.28-5.98-23.36-15.24l0,0
			c-4.98-11.31-17.35-17.43-29.36-14.53l-125.27,30.31c-14.36,3.47-28.66-5.93-31.16-20.49l-0.67-3.94
			c-1.83-10.7-10.23-19.06-20.93-20.86l-54.5-9.15"/>
		<path class="st1" d="M396.56,405.13l58.84-20.85c6.97-2.47,14.53-2.74,21.66-0.76l0,0c18.69,5.18,38.14-5.37,43.98-23.87
			l0.93-2.95c3.26-10.32,10.99-18.63,21.06-22.63l147.15-58.44"/>
		<path class="st1" d="M712.88,296.71l-11.94,39.18c-3.32,10.91,4.84,21.92,16.24,21.92h0.67c7.79,0,14.58,5.3,16.47,12.86
			l6.39,25.56c2,8.02,9.49,13.43,17.74,12.81l29.98-2.25c11.2-0.84,20.12,9.24,17.91,20.25L800.95,454
			c-1.59,7.94-8.55,13.65-16.65,13.65l0,0c-7.72,0-14.47,5.21-16.42,12.68l-15.39,58.84"/>
		<path class="st1" d="M793.16,654.69L917,646.61c2.72-0.18,5.38-0.92,7.8-2.18l51.98-27.06c5.07-2.64,8.74-7.35,10.06-12.92
			l23.66-100c0.84-3.55,2.65-6.8,5.23-9.38l40.66-40.66c6.53-6.53,7.64-16.73,2.66-24.51l0,0c-3.4-5.32-4.05-11.95-1.73-17.82
			l32.78-83.05c1.77-4.49,1.83-9.47,0.17-14l-23.01-62.69"/>
		<path class="st1" d="M984.76,613.22l35,40.96c3.79,4.43,9.33,6.99,15.16,6.99h36.93c4.56,0,8.99-1.57,12.54-4.44v0
			c11.29-9.14,28.25-3.51,31.86,10.56l6,23.45c1.77,6.9,7.08,12.34,13.94,14.26l47.06,13.17"/>
		<path class="st1" d="M810.72,1017l95.39-48.39c6.22-3.16,10.77-8.86,12.46-15.62l11.5-45.98c1.54-6.16,0.58-12.67-2.66-18.13
			l-23.52-39.58c-4.43-7.45-4.51-16.71-0.21-24.23l1.94-3.4c6.63-11.59,21.43-15.58,32.97-8.87l2.44,1.42
			c14.7,8.53,33.37-0.45,35.88-17.26l0.76-5.08c1.61-10.78,10.26-19.13,21.08-20.36l0,0c11.57-1.32,20.55-10.73,21.3-22.36l5.68-88"
			/>
	</g>
</g>
<g>
	<g>
		<path d="M-2611.87,3605.13c3.22,0,3.22-5,0-5C-2615.09,3600.13-2615.09,3605.13-2611.87,3605.13L-2611.87,3605.13z"/>
	</g>
</g>
</svg>
